<mxfile host="drawio-plugin" agent="Mozilla/5.0 (Windows NT 10.0; Win64; x64) AppleWebKit/537.36 (KHTML, like Gecko) Chrome/122.0.0.0 Safari/537.36" modified="2024-11-23T16:56:24.374Z" etag="g-vY9r8IO2_Fj23LVXhB" version="22.1.22" type="embed">
  <diagram name="Page-1" id="5f0bae14-7c28-e335-631c-24af17079c00">
    <mxGraphModel dx="1071" dy="739" grid="1" gridSize="10" guides="1" tooltips="1" connect="1" arrows="1" fold="1" page="1" pageScale="1" pageWidth="1100" pageHeight="850" background="none" math="0" shadow="0">
      <root>
        <mxCell id="0" />
        <mxCell id="1" parent="0" />
        <mxCell id="n8QAAM1QE8m8qRbaEajq-6" value="«component»&lt;div&gt;«system (C4)»&lt;/div&gt;&lt;div&gt;&lt;b&gt;System&lt;/b&gt;&lt;/div&gt;" style="html=1;dropTarget=0;whiteSpace=wrap;aspect=fixed;container=1;align=center;horizontal=1;verticalAlign=top;" parent="1" vertex="1">
          <mxGeometry x="80" y="280" width="657.15" height="230" as="geometry" />
        </mxCell>
        <mxCell id="n8QAAM1QE8m8qRbaEajq-9" value="" style="ellipse;whiteSpace=wrap;html=1;aspect=fixed;" parent="1" vertex="1">
          <mxGeometry x="120" y="130" width="40" height="40" as="geometry" />
        </mxCell>
        <mxCell id="n8QAAM1QE8m8qRbaEajq-10" value="" style="endArrow=none;html=1;rounded=0;exitX=0.5;exitY=0;exitDx=0;exitDy=0;" parent="1" edge="1">
          <mxGeometry width="50" height="50" relative="1" as="geometry">
            <mxPoint x="140" y="260" as="sourcePoint" />
            <mxPoint x="140" y="170" as="targetPoint" />
          </mxGeometry>
        </mxCell>
        <mxCell id="n8QAAM1QE8m8qRbaEajq-11" value="&lt;font style=&quot;font-size: 17px;&quot;&gt;Google API&lt;/font&gt;" style="text;strokeColor=none;fillColor=none;align=left;verticalAlign=middle;spacingLeft=4;spacingRight=4;overflow=hidden;points=[[0,0.5],[1,0.5]];portConstraint=eastwest;rotatable=0;whiteSpace=wrap;html=1;" parent="1" vertex="1">
          <mxGeometry x="90" y="100" width="110" height="30" as="geometry" />
        </mxCell>
        <mxCell id="n8QAAM1QE8m8qRbaEajq-7" value="" style="shape=module;jettyWidth=8;jettyHeight=4;container=1;" parent="1" vertex="1">
          <mxGeometry x="710" y="290" width="20" height="20" as="geometry">
            <mxPoint x="-27" y="7" as="offset" />
          </mxGeometry>
        </mxCell>
        <mxCell id="n8QAAM1QE8m8qRbaEajq-12" value="«component»&lt;div&gt;&lt;b&gt;BE&lt;/b&gt;&lt;/div&gt;" style="html=1;dropTarget=0;whiteSpace=wrap;" parent="1" vertex="1">
          <mxGeometry x="210" y="350" width="140" height="70" as="geometry" />
        </mxCell>
        <mxCell id="n8QAAM1QE8m8qRbaEajq-13" value="" style="shape=module;jettyWidth=8;jettyHeight=4;" parent="n8QAAM1QE8m8qRbaEajq-12" vertex="1">
          <mxGeometry x="1" width="20" height="20" relative="1" as="geometry">
            <mxPoint x="-27" y="7" as="offset" />
          </mxGeometry>
        </mxCell>
        <mxCell id="n8QAAM1QE8m8qRbaEajq-14" value="" style="whiteSpace=wrap;html=1;aspect=fixed;" parent="1" vertex="1">
          <mxGeometry x="190" y="370" width="30" height="30" as="geometry" />
        </mxCell>
        <mxCell id="n8QAAM1QE8m8qRbaEajq-15" value="" style="whiteSpace=wrap;html=1;aspect=fixed;" parent="1" vertex="1">
          <mxGeometry x="125" y="260" width="30" height="30" as="geometry" />
        </mxCell>
        <mxCell id="n8QAAM1QE8m8qRbaEajq-16" value="" style="endArrow=none;html=1;rounded=0;" parent="1" edge="1">
          <mxGeometry width="50" height="50" relative="1" as="geometry">
            <mxPoint x="140" y="390" as="sourcePoint" />
            <mxPoint x="139.66000000000003" y="290" as="targetPoint" />
          </mxGeometry>
        </mxCell>
        <mxCell id="n8QAAM1QE8m8qRbaEajq-17" value="" style="endArrow=none;html=1;rounded=0;" parent="1" edge="1">
          <mxGeometry width="50" height="50" relative="1" as="geometry">
            <mxPoint x="190" y="385" as="sourcePoint" />
            <mxPoint x="139.66000000000003" y="385" as="targetPoint" />
          </mxGeometry>
        </mxCell>
        <mxCell id="2J6mhQwY4nmyH72Ya9vR-2" value="" style="whiteSpace=wrap;html=1;aspect=fixed;" parent="1" vertex="1">
          <mxGeometry x="340" y="380" width="30" height="30" as="geometry" />
        </mxCell>
        <mxCell id="2J6mhQwY4nmyH72Ya9vR-3" value="" style="endArrow=none;html=1;rounded=0;" parent="1" edge="1">
          <mxGeometry width="50" height="50" relative="1" as="geometry">
            <mxPoint x="420.34000000000003" y="394.5" as="sourcePoint" />
            <mxPoint x="370" y="394.5" as="targetPoint" />
          </mxGeometry>
        </mxCell>
        <mxCell id="2J6mhQwY4nmyH72Ya9vR-6" value="" style="shape=providedRequiredInterface;html=1;verticalLabelPosition=bottom;sketch=0;rotation=-180;" parent="1" vertex="1">
          <mxGeometry x="420" y="380" width="30" height="30" as="geometry" />
        </mxCell>
        <mxCell id="2J6mhQwY4nmyH72Ya9vR-7" value="&lt;font style=&quot;font-size: 15px;&quot;&gt;DB API&lt;/font&gt;" style="text;strokeColor=none;fillColor=none;align=left;verticalAlign=middle;spacingLeft=4;spacingRight=4;overflow=hidden;points=[[0,0.5],[1,0.5]];portConstraint=eastwest;rotatable=0;whiteSpace=wrap;html=1;" parent="1" vertex="1">
          <mxGeometry x="410" y="350" width="70" height="30" as="geometry" />
        </mxCell>
        <mxCell id="2J6mhQwY4nmyH72Ya9vR-8" value="" style="endArrow=none;html=1;rounded=0;" parent="1" edge="1">
          <mxGeometry width="50" height="50" relative="1" as="geometry">
            <mxPoint x="500.34000000000003" y="394.5" as="sourcePoint" />
            <mxPoint x="450" y="394.5" as="targetPoint" />
          </mxGeometry>
        </mxCell>
        <mxCell id="2J6mhQwY4nmyH72Ya9vR-10" value="«component»&lt;div&gt;&lt;b&gt;DB - SQL Server&lt;/b&gt;&lt;/div&gt;" style="html=1;dropTarget=0;whiteSpace=wrap;" parent="1" vertex="1">
          <mxGeometry x="520" y="360" width="150" height="80" as="geometry" />
        </mxCell>
        <mxCell id="2J6mhQwY4nmyH72Ya9vR-11" value="" style="shape=module;jettyWidth=8;jettyHeight=4;" parent="2J6mhQwY4nmyH72Ya9vR-10" vertex="1">
          <mxGeometry x="1" width="20" height="20" relative="1" as="geometry">
            <mxPoint x="-27" y="7" as="offset" />
          </mxGeometry>
        </mxCell>
        <mxCell id="2J6mhQwY4nmyH72Ya9vR-9" value="" style="whiteSpace=wrap;html=1;aspect=fixed;" parent="1" vertex="1">
          <mxGeometry x="500" y="380" width="30" height="30" as="geometry" />
        </mxCell>
        <mxCell id="13" style="edgeStyle=orthogonalEdgeStyle;rounded=0;orthogonalLoop=1;jettySize=auto;html=1;entryX=1;entryY=0.5;entryDx=0;entryDy=0;exitX=0;exitY=0.5;exitDx=0;exitDy=0;" edge="1" parent="1" source="2" target="n8QAAM1QE8m8qRbaEajq-9">
          <mxGeometry relative="1" as="geometry">
            <mxPoint x="495" y="165" as="sourcePoint" />
            <mxPoint x="280" y="350" as="targetPoint" />
            <Array as="points">
              <mxPoint x="530" y="150" />
            </Array>
          </mxGeometry>
        </mxCell>
        <mxCell id="2" value="«component»&lt;div&gt;&lt;b&gt;FE&lt;/b&gt;&lt;/div&gt;" style="html=1;dropTarget=0;whiteSpace=wrap;" vertex="1" parent="1">
          <mxGeometry x="530" y="130" width="140" height="70" as="geometry" />
        </mxCell>
        <mxCell id="3" value="" style="shape=module;jettyWidth=8;jettyHeight=4;" vertex="1" parent="2">
          <mxGeometry x="1" width="20" height="20" relative="1" as="geometry">
            <mxPoint x="-27" y="7" as="offset" />
          </mxGeometry>
        </mxCell>
        <mxCell id="4" value="" style="image;aspect=fixed;perimeter=ellipsePerimeter;html=1;align=center;shadow=0;dashed=0;spacingTop=3;image=img/lib/active_directory/databases.svg;" vertex="1" parent="1">
          <mxGeometry x="565" y="320" width="61.22" height="60" as="geometry" />
        </mxCell>
        <mxCell id="9" value="" style="whiteSpace=wrap;html=1;aspect=fixed;" vertex="1" parent="1">
          <mxGeometry x="265" y="320" width="30" height="30" as="geometry" />
        </mxCell>
      </root>
    </mxGraphModel>
  </diagram>
</mxfile>
